<svg width="32" height="32" viewBox="0 0 32 32" fill="none" xmlns="http://www.w3.org/2000/svg">
<path d="M25.3335 9.33341H21.3335V8.00008C21.3335 6.58559 20.7716 5.22904 19.7714 4.22885C18.7712 3.22865 17.4147 2.66675 16.0002 2.66675C14.5857 2.66675 13.2291 3.22865 12.2289 4.22885C11.2287 5.22904 10.6668 6.58559 10.6668 8.00008V9.33341H6.66683C6.31321 9.33341 5.97407 9.47389 5.72402 9.72394C5.47397 9.97399 5.3335 10.3131 5.3335 10.6667L5.3335 25.3334C5.3335 26.3943 5.75492 27.4117 6.50507 28.1618C7.25521 28.912 8.27263 29.3334 9.3335 29.3334H22.6668C23.7277 29.3334 24.7451 28.912 25.4953 28.1618C26.2454 27.4117 26.6668 26.3943 26.6668 25.3334V10.6667C26.6668 10.3131 26.5264 9.97399 26.2763 9.72394C26.0263 9.47389 25.6871 9.33341 25.3335 9.33341ZM13.3335 8.00008C13.3335 7.29284 13.6144 6.61456 14.1145 6.11446C14.6146 5.61437 15.2929 5.33341 16.0002 5.33341C16.7074 5.33341 17.3857 5.61437 17.8858 6.11446C18.3859 6.61456 18.6668 7.29284 18.6668 8.00008V9.33341H13.3335V8.00008ZM24.0002 25.3334C24.0002 25.687 23.8597 26.0262 23.6096 26.2762C23.3596 26.5263 23.0205 26.6667 22.6668 26.6667H9.3335C8.97987 26.6667 8.64074 26.5263 8.39069 26.2762C8.14064 26.0262 8.00016 25.687 8.00016 25.3334L8.00016 12.0001H10.6668V13.3334C10.6668 13.687 10.8073 14.0262 11.0574 14.2762C11.3074 14.5263 11.6465 14.6667 12.0002 14.6667C12.3538 14.6667 12.6929 14.5263 12.943 14.2762C13.193 14.0262 13.3335 13.687 13.3335 13.3334V12.0001H18.6668V13.3334C18.6668 13.687 18.8073 14.0262 19.0574 14.2762C19.3074 14.5263 19.6465 14.6667 20.0002 14.6667C20.3538 14.6667 20.6929 14.5263 20.943 14.2762C21.193 14.0262 21.3335 13.687 21.3335 13.3334V12.0001L24.0002 12.0001V25.3334Z" fill="#424241"/>
</svg>
